<svg width="18" height="18" viewBox="0 0 18 18" xmlns="http://www.w3.org/2000/svg"><g transform="translate(0 0)" fill="none"><circle fill="#F0F0F0" cx="8.69" cy="8.69" r="8.69"/><g id="Group" fill="#0052B4"><path d="M1.796 3.399c-.683.888-1.197 1.912-1.497 3.024h4.521l-3.024-3.024zM17.08 6.423c-.3-1.112-.814-2.136-1.497-3.024l-3.024 3.024h4.521zM.299 10.957c.3 1.112.814 2.136 1.497 3.024l3.024-3.024h-4.52zM13.98 1.796c-.888-.683-1.912-1.197-3.024-1.497v4.521l3.024-3.024zM3.399 15.583c.888.683 1.912 1.197 3.024 1.497v-4.521l-3.024 3.024zM6.423.299c-1.112.3-2.136.814-3.024 1.497l3.024 3.024v-4.521zM10.957 17.08c1.112-.3 2.136-.814 3.024-1.497l-3.024-3.024v4.521zM12.559 10.957l3.024 3.024c.683-.888 1.197-1.912 1.497-3.024h-4.521z" id="Shape"/></g><g fill="#D80027"><path d="M17.306 7.556h-7.483v-7.483c-.371-.048-.749-.074-1.133-.074s-.762.025-1.133.074v7.483h-7.483c-.048.371-.074.749-.074 1.133s.025.762.074 1.133h7.483v7.483c.371.048.749.074 1.133.074s.762-.025 1.133-.074v-7.483h7.483c.048-.371.074-.749.074-1.133s-.025-.762-.074-1.133zM10.957 10.957l3.878 3.878c.178-.178.348-.365.511-.558l-3.32-3.32h-1.069zM6.423 10.957l-3.878 3.878c.178.178.365.348.558.511l3.32-3.32v-1.069zM6.423 6.423l-3.878-3.878c-.178.178-.348.365-.511.558l3.32 3.32h1.069zM10.957 6.423l3.878-3.878c-.178-.178-.365-.348-.558-.511l-3.32 3.32v1.069z"/></g></g></svg>