<svg width="18" height="16" viewBox="0 0 18 16" xmlns="http://www.w3.org/2000/svg"><path d="M17.528 14.863c-.315.334-.693.501-1.135.501h-14.786c-.442 0-.82-.167-1.135-.501-.315-.334-.472-.736-.472-1.204v-8.461c.295.348.633.657 1.014.927 2.425 1.747 4.089 2.973 4.993 3.676.381.299.691.531.929.698.237.167.554.338.949.512.395.174.763.261 1.105.261h.02c.342 0 .71-.087 1.105-.261.395-.174.711-.345.949-.512.238-.167.548-.399.929-.698 1.138-.874 2.806-2.099 5.002-3.676.382-.277.717-.586 1.005-.927v8.461c0 .468-.157.87-.472 1.204zm-1.246-9.879l-4.7 3.464-.427.325-.543.405c-.144.103-.318.218-.522.346-.204.128-.397.224-.578.288-.18.064-.348.096-.502.096h-.02c-.154 0-.322-.032-.502-.096-.181-.064-.374-.16-.578-.288-.204-.128-.378-.243-.522-.346l-.543-.405-.427-.325c-.609-.455-1.486-1.103-2.631-1.945-1.145-.841-1.832-1.347-2.059-1.518-.416-.299-.807-.709-1.176-1.231-.368-.522-.552-1.007-.552-1.454 0-.555.139-1.016.417-1.386.278-.369.674-.554 1.19-.554h14.786c.435 0 .812.167 1.13.501.318.334.477.735.477 1.204 0 .561-.164 1.098-.492 1.609-.328.511-.737.949-1.226 1.31z" fill="#9FA3A7"/></svg>