<svg width="44" height="45" viewBox="0 0 44 45" xmlns="http://www.w3.org/2000/svg"><g fill="none"><path d="M22.202.534c-12.033 0-21.788 9.755-21.788 21.788s9.755 21.788 21.788 21.788 21.788-9.755 21.788-21.788-9.755-21.788-21.788-21.788z" fill="#D85E72"/><path d="M24.748 16.262c1.672-.106 1.964 1.84 1.443 3.813-1.017 4.533-2.6 8.925-3.459 13.495.415 1.804 2.69-.265 3.663-.926.828-.658.971.167 1.253.858-2.065 1.447-4.141 2.92-6.441 4.085-2.161 1.311-3.93-.727-3.391-2.996.892-4.233 2.065-8.403 3.023-12.623.299-2.281-2.702.041-3.595.572-.72.905-1.062.244-1.362-.572 2.393-1.748 4.833-3.893 7.476-5.284.54-.268 1.003-.398 1.389-.422zM25.81 6.648h.259c1.18-.039 2.206.851 2.37 2.002.527 2.21-1.82 4.425-3.976 3.54-2.575-1.195-1.278-5.415 1.348-5.542z" fill="#fff"/></g></svg>