<?xml version="1.0" encoding="UTF-8" standalone="no"?>
<svg width="17px" height="12px" viewBox="0 0 17 12" version="1.1" xmlns="http://www.w3.org/2000/svg" xmlns:xlink="http://www.w3.org/1999/xlink">
    <!-- Generator: Sketch 39 (31667) - http://www.bohemiancoding.com/sketch -->
    <title>left-arrow</title>
    <desc>Created with Sketch.</desc>
    <defs></defs>
    <g id="Home" stroke="none" stroke-width="1" fill="none" fill-rule="evenodd">
        <g id="Desktop-HD" transform="translate(-293.000000, -1328.000000)" fill="#D85E72">
            <g id="Dernier-article" transform="translate(150.000000, 970.000000)">
                <g id="Lire-l'article" transform="translate(45.000000, 351.000000)">
                    <g id="left-arrow" transform="translate(98.000000, 7.000000)">
                        <g id="Capa_1">
                            <path d="M5.46457379,0.177121603 C5.70073593,-0.0590405345 6.07253173,-0.0590405345 6.30869387,0.177121603 C6.53687755,0.405305291 6.53687755,0.785079539 6.30869387,1.01273133 L2.02852107,5.29290413 L16.1525062,5.29290413 C16.4817503,5.29290413 16.7519538,5.55459731 16.7519538,5.88384137 C16.7519538,6.21308543 16.4817503,6.48328896 16.1525062,6.48328896 L2.02852107,6.48328896 L6.30869387,10.7554833 C6.53687755,10.9916454 6.53687755,11.3719516 6.30869387,11.5996034 C6.07253173,11.8357655 5.70073593,11.8357655 5.46457379,11.5996034 L0.171137765,6.30616736 C-0.0570459218,6.07798367 -0.0570459218,5.69820942 0.171137765,5.47055763 L5.46457379,0.177121603 L5.46457379,0.177121603 Z" id="Shape" transform="translate(8.375977, 5.888362) rotate(-180.000000) translate(-8.375977, -5.888362) "></path>
                        </g>
                    </g>
                </g>
            </g>
        </g>
    </g>
</svg>