<svg width="74" height="49" viewBox="0 0 74 49" xmlns="http://www.w3.org/2000/svg"><path d="M70.819 4.703c-10.995 0-20.491 6.538-24.856 15.938 2.251-1.38 4.894-2.176 7.719-2.176 8.189 0 14.86 6.685 14.86 14.904 0 8.219-6.672 14.904-14.86 14.904-8.189 0-14.849-6.685-14.849-14.904 0-.292.011-.582.027-.871l-.027-.271c0-17.703 14.347-32.102 31.986-32.102 1.272 0 2.287 1.018 2.287 2.282 0 1.279-1.015 2.297-2.287 2.297zm-38.836 0c-10.999 0-20.503 6.542-24.869 15.947 2.254-1.385 4.901-2.185 7.732-2.185 8.189 0 14.849 6.685 14.849 14.904 0 8.219-6.661 14.904-14.849 14.904-8.187 0-14.848-6.685-14.848-14.904 0-.292.011-.581.027-.869l-.027-.273c0-17.703 14.346-32.102 31.984-32.102 1.261 0 2.288 1.018 2.288 2.282 0 1.279-1.028 2.297-2.288 2.297z" fill="#D85E72"/></svg>