<svg width="417" height="275" viewBox="0 0 417 275" xmlns="http://www.w3.org/2000/svg"><path d="M403.488 26.954c-62.566 0-116.603 37.202-141.438 90.696 12.808-7.854 27.848-12.385 43.926-12.385 46.597 0 84.561 38.039 84.561 84.808 0 46.77-37.964 84.811-84.561 84.811-46.597 0-84.498-38.041-84.498-84.811 0-1.663.061-3.313.155-4.955-.06-.513-.155-1.016-.155-1.544 0-100.739 81.641-182.673 182.01-182.673 7.236 0 13.014 5.791 13.014 12.983 0 7.28-5.778 13.07-13.014 13.07zm-220.989 0c-62.586 0-116.67 37.226-141.512 90.747 12.824-7.884 27.89-12.436 43.999-12.436 46.597 0 84.498 38.039 84.498 84.808 0 46.77-37.901 84.811-84.498 84.811-46.589 0-84.488-38.041-84.488-84.811 0-1.66.061-3.306.155-4.945-.062-.515-.155-1.022-.155-1.554 0-100.739 81.633-182.673 182.001-182.673 7.174 0 13.022 5.791 13.022 12.983 0 7.28-5.848 13.07-13.022 13.07z" fill="#D9D9D9" opacity=".4"/></svg>