<svg width="129" height="89" viewBox="0 0 129 89" xmlns="http://www.w3.org/2000/svg"><path d="M124.996 8.463c-19.249 0-35.873 12.085-43.514 29.461 3.94-2.551 8.568-4.023 13.514-4.023 14.336 0 26.016 12.357 26.016 27.549 0 15.193-11.68 27.55-26.016 27.55-14.336 0-25.996-12.357-25.996-27.55 0-.54.019-1.076.048-1.61-.018-.167-.048-.33-.048-.502 0-32.724 25.117-59.339 55.996-59.339 2.226 0 4.004 1.881 4.004 4.217 0 2.365-1.778 4.246-4.004 4.246zm-69.002 0c-19.255 0-35.894 12.092-43.537 29.478 3.945-2.561 8.581-4.04 13.537-4.04 14.336 0 25.996 12.357 25.996 27.549 0 15.193-11.66 27.55-25.996 27.55-14.333 0-25.993-12.357-25.993-27.55 0-.539.019-1.074.048-1.606-.019-.167-.048-.332-.048-.505 0-32.724 25.115-59.339 55.994-59.339 2.207 0 4.006 1.881 4.006 4.217 0 2.365-1.799 4.246-4.006 4.246z" fill="#D85E72"/></svg>