<svg width="100" height="96" viewBox="0 0 100 96" xmlns="http://www.w3.org/2000/svg"><path d="M72.814 36.752l14.991 5.507-12.467 33.945c-1.167 3.193-7.494 13.183-11.9 15.221l-1.069 2.917c-.272.739-.972 1.202-1.715 1.202-.21 0-.42-.039-.63-.113-.945-.35-1.435-1.396-1.085-2.349l1.011-2.757c-2.236-4.344-.568-16.959.412-19.627l12.452-33.945zm21.696-35.917c-4.122-1.509-8.948 1.61-10.329 5.378l-9.03 24.6 14.987 5.499 9.018-24.597c1.136-3.08-.517-9.368-4.647-10.881zm-27.124 34.645c.42.156.852.229 1.272.229 1.486 0 2.882-.91 3.43-2.388l9.528-25.697c.704-1.894-.264-3.998-2.158-4.698-1.909-.692-3.998.264-4.702 2.158l-9.528 25.697c-.704 1.894.264 3.998 2.158 4.698zm-15.337 48.186c-.984-.929-2.209-2.088-4.192-2.971-1.633-.727-3.224-.762-4.387-.789l-.401-.008c-.727-1.991-2.201-3.243-4.414-3.733-2.928-.618-5.265.762-6.887 1.828.144-.817.381-1.789.556-2.489.56-2.255 1.136-4.589.708-6.774-.338-1.727-1.797-3.01-3.554-3.134-4.53-.253-8.233 2.185-11.495 4.39-3.426 2.314-5.623 3.694-7.809 2.913-2.668-.949-2.936-8.17-1.653-14.602 1.147-5.794 3.282-16.582 8.754-21.482 1.843-1.649 4.511-3.434 6.704-2.567 2.578 1.011 4.709 5.258 5.184 10.317.198 2.135 2.061 3.702 4.235 3.508 2.139-.198 3.71-2.096 3.508-4.235-.77-8.244-4.635-14.692-10.084-16.835-3.263-1.268-8.45-1.61-14.739 4.017-6.84 6.125-9.368 16.512-11.2 25.763-.918 4.62-3.154 19.949 6.677 23.446 5.989 2.135 10.854-1.159 14.762-3.795.716-.482 1.419-.957 2.104-1.381-.649 2.819-1.054 5.837.649 8.38 2.539 3.819 6.129 4.235 10.663 1.248l.568-.377c.42.879 1.163 1.847 2.512 2.508 1.633.801 3.267.84 4.457.871.509.012 1.206.027 1.416.121.731.323 1.163.719 2.003 1.513.63.595 1.295 1.213 2.139 1.851.7.525 1.517.774 2.325.774 1.182 0 2.353-.541 3.115-1.556 1.287-1.719.937-4.157-.782-5.444-.564-.436-1.011-.867-1.443-1.276z" fill="#D85E72"/></svg>