<svg xmlns="http://www.w3.org/2000/svg" width="480" height="253.2" viewBox="0 0 480 253.2"><path fill="#fff" d="M324.24 55.44c1.867.506 26.54 11.294 26.073 6.692-.01-.093-73.242 5.495-77.042 2.379 1.99-1.995 10.46-.506 13.187-.979 5.94-1.031 12.888-.521 18.625-2.301 4.635-1.438 14.707-5.791 19.157-5.791.654.177-.56 0 0 0zM46.728 96.17c6.773-6.188 16.785-13.001 26.075-8.296 5.759 2.923 10.315 2.441 16.446 4.343 6.148 1.908 15.368.897 20.938 3.431 6.693 3.047 16.344-2.01 23.741 1.596-14.887 4.5-34.543-.634-50.146 1.069-6.873.75-13.953.552-20.866.641-1.271.017-15.283-2.043-16.188-2.784.87-.795.507.415 0 0zM378.256 92.224c4.216-.724 8.951-1.09 12.867-2.923 1.345-.559 2.611-1.251 3.798-2.075 3.768-4.313 6.232-.162 10.111-1.251 6.359-1.786 8.052-8.617 16.412-7.594 2.383.292 14.502 5.56 8.11 8.998 5.958.393 11.822 1.642 17.794 1.898-4.219 4.139-26.285 3.008-32.601 3.348-5.045.271-33.587 3.378-36.491-.401 2.045-.351.424.551 0 0zM39.323 100.415c4.532-2.304 8.942-1.464 13.527-.371-.943.808-10.52.999-13.527.371z"/></svg>