<svg width="41" height="37" viewBox="0 0 41 37" xmlns="http://www.w3.org/2000/svg"><g fill="#D85E72"><path d="M20.017 25.795c-1.119 0-2.057.938-2.057 2.057s.938 2.057 2.057 2.057c1.078 0 2.057-.938 2.008-2.008.049-1.177-.881-2.107-2.008-2.107zM39.06 33.087c1.292-2.23 1.3-4.888.016-7.11l-12.888-22.319c-1.276-2.247-3.58-3.58-6.164-3.58-2.584 0-4.888 1.341-6.164 3.572l-12.904 22.344c-1.284 2.247-1.276 4.921.025 7.152 1.284 2.206 3.58 3.531 6.148 3.531h25.742c2.576 0 4.888-1.341 6.189-3.588zm-2.798-1.613c-.716 1.234-1.983 1.967-3.399 1.967h-25.742c-1.399 0-2.658-.716-3.358-1.926-.708-1.226-.716-2.691-.008-3.926l12.904-22.335c.7-1.226 1.95-1.95 3.366-1.95 1.407 0 2.666.732 3.366 1.959l12.896 22.335c.691 1.202.683 2.65-.025 3.876zM19.506 11.352c-.979.28-1.588 1.169-1.588 2.247l.14 1.959.42 7.382c.049.839.7 1.448 1.539 1.448s1.498-.65 1.539-1.498c0-.51 0-.979.049-1.498l.28-4.765.189-3.086c0-.37-.049-.7-.189-1.029-.42-.922-1.399-1.391-2.378-1.16z"/></g></svg>