<?xml version="1.0" encoding="UTF-8" standalone="no"?>
<svg width="33px" height="43px" viewBox="0 0 33 43" version="1.1" xmlns="http://www.w3.org/2000/svg" xmlns:xlink="http://www.w3.org/1999/xlink">
    <!-- Generator: Sketch 39 (31667) - http://www.bohemiancoding.com/sketch -->
    <title>Page 1</title>
    <desc>Created with Sketch.</desc>
    <defs>
        <polygon id="path-1" points="32.9114069 0.0586805556 0 0.0586805556 0 6.49813125 0 12.9375819 32.9114069 12.9375819 32.9114069 0.0586805556"></polygon>
        <polygon id="path-3" points="0.116777814 33.3061224 22.8681601 33.3061224 22.8681601 0.0502832432 0.116777814 0.0502832432 0.116777814 33.3061224"></polygon>
    </defs>
    <g id="Home" stroke="none" stroke-width="1" fill="none" fill-rule="evenodd">
        <g id="Desktop-HD" transform="translate(-91.000000, -22.000000)">
            <g id="Page-1" transform="translate(91.000000, 22.000000)">
                <g id="Group-3">
                    <mask id="mask-2" fill="white">
                        <use xlink:href="#path-1"></use>
                    </mask>
                    <g id="Clip-2"></g>
                    <path d="M0,12.9375819 C3.81824194,4.36137361 8.89669355,8.76656806 15.677129,6.06274861 C18.4906452,4.94077639 21.5804032,1.38437361 23.3565484,0.320901389 C24.192371,-0.263918056 24.923871,0.214554167 25.1699516,0.921248611 C25.7431935,2.86637361 23.9748548,3.61224861 24.3060968,5.43459583 C24.7150484,7.44490139 28.4307419,1.24534583 32.1391613,4.02806806 C33.7527903,5.2385125 32.7862097,8.50837361 29.7204032,8.54123472 C31.7105161,8.10790139 32.2842903,5.13884583 30.0081774,4.61397083 C28.0111452,4.15373472 25.2354194,9.53537361 23.1998871,6.75391528 C21.7040645,4.70948472 25.3942097,1.80958194 23.9604839,1.68355417 C23.1998871,1.70323472 21.9968065,3.30367917 21.2532419,3.91070694 C19.5950806,5.26523472 17.9234355,6.70065139 15.990629,7.65759583 C13.5284032,8.8768875 10.0830968,7.84356806 7.02704839,8.48273472 C4.40212903,9.03180417 2.19804839,9.97394306 0.806370968,11.7652347 C0.4785,12.2422625 0.211306452,12.6304569 0,12.9375819" id="Fill-1" fill="#F7931D" mask="url(#mask-2)"></path>
                </g>
                <path d="M17.9998461,1 C18.0188958,2.19257662 16.2643987,3.35626059 15.4470083,3.87007547 C13.09795,5.34597259 9.84271914,5.14695826 6.76610125,5.97018327 C4.92387056,6.4628677 3.43939019,7.21299861 2,8 C3.3193245,5.1808101 6.35452234,4.12191591 9.43271314,3.4500539 C12.5561689,2.76762667 16.2614277,3.33362082 17.9998461,1" id="Fill-4" fill="#F7931D"></path>
                <g id="Group-8" opacity="0.699999988" transform="translate(5.000000, 9.000000)">
                    <mask id="mask-4" fill="white">
                        <use xlink:href="#path-3"></use>
                    </mask>
                    <g id="Clip-7"></g>
                    <path d="M21.610963,0.0502832432 C21.540152,0.556896371 21.3485457,1.0640496 21.2777346,1.57066272 C21.0924669,2.73439665 21.3786087,3.94223868 21.5577189,4.84294425 C22.0410811,7.27267089 22.6061205,9.2937224 22.8207268,11.8224672 C23.1414591,15.6037023 21.8259315,19.1026455 19.1697031,20.2726806 C17.6370339,20.9478047 15.7262228,21.1399 13.8624984,21.6169877 C11.1381756,22.314616 8.36495512,23.1008205 6.27358504,24.5392849 C4.3691126,25.8490257 2.8587189,27.3020728 1.7092622,29.4487874 C1.17863228,30.7342237 0.64782126,32.0205601 0.117010236,33.3061765 C0.0731834646,25.8193202 6.23573465,22.9051245 11.6336717,21.2662832 C15.0818606,20.2193908 18.9610732,20.2436953 20.708711,17.3505634 C22.5458134,14.3087243 21.3708213,9.3198272 20.708711,5.77821617 C20.5020732,4.67353311 20.2474433,3.14739256 20.4433961,2.15433002 C20.6279394,1.21905809 21.2063803,0.738909829 21.610963,0.0502832432" id="Fill-6" fill="#FEFEFE" mask="url(#mask-4)"></path>
                </g>
                <path d="M28.8066248,11 C28.6952038,12.8104276 28.7703999,13.4174886 28.9341311,14.4343114 C29.5381842,18.1923416 30.8778509,22.9007229 29.1463801,26.3974507 C28.8437651,27.0078617 28.5268955,27.703963 28,28 C28.7522221,26.4235456 29.3713144,23.9603908 28.9765024,21.1885041 C28.5180027,17.9710632 27.367307,14.008681 28.8066248,11" id="Fill-9" fill="#FEFEFE" opacity="0.699999988"></path>
                <path d="M20.1519729,13.2464445 C19.8030457,14.4186304 18.45716,15.0449496 17.5191285,14.0328039 C17.3757837,14.1639503 17.2324388,14.2950967 17.089094,14.4258971 L17.089094,14.4823004 C18.8562413,15.1799024 19.7033995,15.1098308 20.6894333,13.4711928 L20.6894333,13.4151355 C20.510335,13.3589051 20.3312367,13.3026748 20.1519729,13.2464445 L20.1519729,13.2464445 Z M18.1638493,13.4151355 C18.2174795,13.4898785 18.2712752,13.5646216 18.3249053,13.6395377 C18.5091349,13.7665317 18.6309615,13.7917921 18.8625313,13.7521713 C19.1238956,13.6052804 19.2319836,13.5006055 19.2924003,13.1343299 C18.9355279,13.040555 18.424055,13.1422887 18.1638493,13.4151355 L18.1638493,13.4151355 Z M19.9371211,11 C19.9728746,11.3929202 20.0087935,11.7863594 20.0447125,12.1792796 C20.3131944,12.2168241 20.8115909,12.3789404 21.0800728,12.416485 C21.3490513,11.9858473 21.3881153,11.4304647 21.6567627,11 C21.9072024,11.1494861 22.1583042,11.2993183 22.4090749,11.4489775 C22.3066148,11.8059102 22.1157642,12.3272085 22.0550164,12.6585349 C22.2538123,12.7753209 22.6212783,12.9675421 23,13.1902142 C22.8386129,13.4898785 22.6777224,13.7895429 22.5163353,14.0890342 C22.2299766,13.9765736 21.9431214,13.8642859 21.6567627,13.7521713 C21.2952556,14.827122 19.8651176,16.3110834 18.1638493,15.9425585 C17.3395336,15.7278452 17.046885,15.6005052 16.4443732,15.2686598 C16.2293559,15.5120938 16.0143386,15.7555279 15.7994869,15.9986158 C15.6025118,15.8863282 15.4053713,15.7740406 15.2083963,15.661753 C15.3078769,15.238728 15.6945439,14.7854251 15.731125,14.5558324 C15.5161077,14.2002837 15.2150173,13.9565037 15,13.600955 C15.2143552,13.3547527 15.531336,12.8666736 15.9069127,12.797121 C16.1217645,13.0031835 16.2838137,13.4329561 16.4986655,13.6391917 C16.6956405,13.4518149 16.9457491,13.040728 17.1427241,12.8533513 C17.0174215,12.4976297 16.8921189,12.141735 16.7668163,11.7863594 C16.9457491,11.5989827 17.1251785,11.4116059 17.3041112,11.2244022 C17.3243053,11.2349562 17.738615,11.9223502 18.0949908,12.2253019 C18.3873084,12.0979619 18.5579649,12.1109381 18.8991124,12.1233953 C18.9350313,11.7114433 18.9878339,11.4116059 19.0237529,11 L19.9371211,11 Z" id="Fill-11" fill="#FEFEFE" opacity="0.7"></path>
                <path d="M8.86652064,14.3606867 C8.2207087,15.718348 6.90754558,16.0668955 5.50822552,15.1269502 C5.19462888,15.2928527 4.98197458,15.4756669 4.77789947,15.7332301 C6.44262669,17.1079721 8.98352614,15.7163186 9.69614621,14.6353307 C9.41978689,14.5435009 9.14324503,14.4523475 8.86652064,14.3606867 M6.37764392,14.580199 C6.77119127,15.110546 7.46190704,14.8955998 7.56266685,14.3606867 C7.07639127,14.3606867 6.86793529,14.3534148 6.37764392,14.580199 M8.03689506,12 C8.08179889,12.7527342 8.10151277,12.7823295 8.18219362,13.2555153 C8.22180391,13.2369126 9.30113857,13.3358453 9.34074885,13.3177499 C9.39989048,13.0065769 9.4590321,12.695404 9.5185388,12.3840619 C9.53825268,12.3840619 10.2492299,12.6771395 10.5850959,12.8234246 C10.5259543,13.1526929 10.4666302,13.4824687 10.407306,13.811737 C10.6048098,13.9399268 10.8023136,14.0681165 11,14.195968 C10.430123,16.2573199 7.9317544,17.6126135 5.13347936,16.7213735 C4.50117507,16.5201257 3.85864878,16.3772229 3.47422822,15.9530806 C3.66570835,15.5984449 3.80918155,15.4279762 3.90464782,15.2514194 C3.60820955,14.9037174 3.29625573,14.4887074 3,14.1411745 C3.03961029,14.1411745 3.67173204,13.775208 3.9482739,13.5920557 C4.20510188,13.921324 4.46174732,14.2510997 4.71839277,14.580199 C4.75800306,14.5435009 4.79761334,14.507141 4.83722363,14.4704429 C5.09386908,14.2876287 5.35051452,14.1044764 5.60734251,13.921324 C5.46934538,13.5920557 5.33098318,13.2626182 5.19262099,12.9333498 C5.48887672,12.8234246 5.78513245,12.7138376 6.08138819,12.6037432 C6.20003651,12.9150853 6.31850229,13.2260892 6.43696808,13.5372622 C6.67389965,13.4824687 6.91119629,13.4273369 7.14812787,13.3725434 C7.14812787,13.3541098 6.99023433,12.5487806 6.91119629,12.1647187 C7.16765921,12.1097561 7.91861181,12 8.03689506,12" id="Fill-13" fill="#FEFEFE" opacity="0.7"></path>
                <path d="M9,30 C8.03844451,29.8425226 7.26901466,29.2866204 6.59193865,28.8483194 C2.97548857,26.5060958 1.84647221,22.1886454 2.01634392,17 C2.57825581,17.0914113 3.1401677,17.1826536 3.70207959,17.2740648 C2.71363392,22.149445 4.73429133,25.5394343 7.01327985,28.1351088 C7.52104049,28.7134836 8.24855875,29.6769347 9,30" id="Fill-15" fill="#FEFEFE" opacity="0.699999988"></path>
                <path d="M7.19339158,25.5756494 C7.47250389,27.6839227 10.3349919,27.6698905 11.8769383,27.1172406 C11.8769383,27.0939256 8.59280027,26.205584 7.19339158,25.5756494 M7.33689109,24.3080086 C8.48777248,25.2703967 11.3731512,25.6322097 12.1266198,25.7859155 C12.1512417,23.9053944 8.80958839,22.4646187 7.33689109,24.3080086 M9.50381051,22.0013426 C12.3018584,21.9393854 13.7962923,24.0286613 14,26.8370298 C13.2474932,27.496108 12.5692369,28.2706815 11.5647404,28.6590476 C7.99995112,30.0367867 5.86400143,27.0101646 6.00673149,23.6832551 C7.33689109,22.2949379 8.94193109,22.0622205 9.50381051,22.0013426" id="Fill-17" fill="#ED1F24" opacity="0.704349347"></path>
                <path d="M16.5883792,24.9200053 C17.333283,24.7841012 18.0785492,24.6481971 18.8236342,24.5122931 C18.4902304,24.162569 18.1568266,23.8126654 17.823604,23.4631208 C17.8040347,23.4631208 16.5883792,24.9007956 16.5883792,24.9200053 M17.5882282,25.794136 C17.6472986,26.2215965 17.7058255,26.649057 17.764896,27.0765175 C18.3333132,26.5131529 18.902274,25.9496088 19.4706913,25.3864238 C19.411802,25.3864238 18.1568266,25.6582319 17.5882282,25.794136 M13.2940235,10 C13.6469966,10.0385989 14.000151,10.0775569 14.352943,10.1165149 C13.7707547,12.1771581 13.9314771,14.8979326 13.7060671,16.9935842 C13.6469966,17.8678944 13.5881074,18.7422046 13.5293993,19.6165149 C15.0195694,19.1890544 16.5099206,18.7615938 18.0002718,18.3341333 C18.1959653,18.7813421 18.3923837,19.2280123 18.5882584,19.674503 C17.7451454,20.0046583 16.9018512,20.3351727 16.0587383,20.6655076 C16.2156555,21.5784167 16.3725727,22.4918645 16.5294899,23.4045941 C16.8822819,22.9967023 17.235255,22.5889901 17.5882282,22.1807393 C19.0564733,22.9058602 20.1529007,24.2214548 21,25.5611063 C19.7845257,26.7072247 18.5685078,27.8538816 17.3530336,29 C17.1176577,28.145079 16.8822819,27.290158 16.6470872,26.435237 C16.3136834,26.5131529 15.9804608,26.5910689 15.6472382,26.6686257 C15.2940839,24.7453228 14.9411107,22.8216607 14.5883188,20.8985373 C13.8040951,21.1121778 13.0196902,21.3261773 12.235104,21.5396383 L12.176396,21.5396383 C12.1176879,21.0152317 12.0589799,20.490466 12.0000906,19.9660594 L11.9410201,19.9660594 C10.7057953,20.3511509 9.86159514,20.5870531 9,21.2484409 C9.08788089,18.2156437 11.2017335,19.6834795 11.9410201,18.2757862 C12.0390481,17.4601822 12.1370761,16.6436806 12.235104,15.8280766 C12.5882584,13.8855639 12.9412315,11.9425127 13.2940235,10" id="Fill-21" fill="#FEFEFE" opacity="0.7"></path>
            </g>
        </g>
    </g>
</svg>