<?xml version="1.0" encoding="UTF-8" standalone="no"?>
<svg width="77px" height="105px" viewBox="0 0 77 105" version="1.1" xmlns="http://www.w3.org/2000/svg" xmlns:xlink="http://www.w3.org/1999/xlink">
    <!-- Generator: Sketch 39 (31667) - http://www.bohemiancoding.com/sketch -->
    <title>XMLID_158_</title>
    <desc>Created with Sketch.</desc>
    <defs></defs>
    <g id="Je-suis-un-étudiant" stroke="none" stroke-width="1" fill="none" fill-rule="evenodd">
        <g id="Desktop-HD" transform="translate(-1225.000000, -711.000000)" fill="#E0E0E0">
            <g id="Group-5" transform="translate(305.000000, 235.000000)">
                <g id="human-resources" transform="translate(920.000000, 476.000000)">
                    <g id="Capa_1">
                        <g id="XMLID_158_">
                            <path d="M68.1221543,22 L64.3311123,22 C59.4295394,22 55.4526264,25.9692234 55.4526264,30.8646486 L55.4526264,31.5149288 L66.661008,23.566681 C66.6712512,23.5594367 66.6842685,23.5581583 66.6949385,23.550914 C66.6842685,23.5594367 66.6738119,23.5613543 66.6646358,23.5696639 L51.8626068,37.1575797 L36.6854214,43.6113762 C34.4436598,44.5625069 33.3997094,47.1493522 34.352965,49.3871939 C35.0697739,51.0623259 36.6997192,52.0671494 38.4152377,52.0671494 C38.9914164,52.0671494 39.5769846,51.9533717 40.1380118,51.7126061 L56.0145073,44.9634988 C56.4797182,44.7672642 56.9031028,44.4936863 57.2727107,44.1529923 L72.6317124,30.050733 C72.6447298,30.0390143 72.6487843,30.0213298 72.6620151,30.0096111 C72.6489977,30.0232474 72.6449432,30.0402927 72.6342732,30.0541421 L59.0637726,46.0985062 C58.6709042,46.562779 58.1928893,46.9087997 57.6683534,47.1337983 L57.0514154,47.3954445 L55.4526264,48.0744887 L55.4592418,99.7159407 C55.4592418,102.634531 57.830537,105 60.7515492,105 C61.9578966,105 63.0603183,104.580045 63.9482736,103.899083 C63.2696632,102.650298 62.8462786,101.240008 62.8462786,99.7159407 L62.8462786,68.2278481 L66.3750527,68.2278481 L66.3750527,99.7157277 C66.3750527,102.634318 68.7452808,104.999787 71.6673601,104.999787 C74.5883723,104.999787 76.9581737,102.634318 76.9581737,99.7157277 C76.9581737,99.7157277 77,55.2919171 77,30.8644355 C77.0002134,25.9692234 73.0245809,22 68.1221543,22 L68.1221543,22 Z" id="XMLID_162_"></path>
                            <path d="M66.4997827,20 C72.3023571,20 77,15.5243959 77,10.0009313 C77.0002173,4.47560408 72.3025744,0 66.4997827,0 C60.7015542,0 56,4.47560408 56,10.0009313 C56,15.5243959 60.7017714,20 66.4997827,20 L66.4997827,20 Z" id="XMLID_161_"></path>
                            <path d="M11.4997827,20 C17.2982286,20 22,15.5243959 22,10.0009313 C22,4.47560408 17.2982286,0 11.4997827,0 C5.6976429,0 1,4.47560408 1,10.0009313 C1,15.5243959 5.6976429,20 11.4997827,20 L11.4997827,20 Z" id="XMLID_160_"></path>
                            <path d="M23.4618291,36.4646861 L11.8265915,25.1299528 L21.3027172,32.5157041 L21.3027172,30.8646486 C21.3027172,25.9692234 17.3709985,22 12.5251277,22 L8.77758956,22 C3.93003096,22 0,25.9692234 0,30.8646486 C0,56.0732334 0.0413509807,99.7159407 0.0413509807,99.7159407 C0.0413509807,102.634531 2.38464355,105 5.27203907,105 C8.16091141,105 10.504204,102.634531 10.504204,99.7159407 L10.504204,68.2278481 L13.9928765,68.2278481 L13.9928765,99.7157277 C13.9928765,101.239795 13.5730375,102.650085 12.9021389,103.89887 C13.7816911,104.579832 14.8709519,104.999787 16.0640121,104.999787 C18.9514076,104.999787 21.296177,102.634318 21.296177,99.7157277 L21.3027172,48.0129124 L17.8207959,45.5121461 L16.707906,44.7135713 C16.6431368,44.6658443 16.5808994,44.6070379 16.5304765,44.5467399 L5.76972766,31.4695456 L17.8140447,43.2016486 C18.0872565,43.4645731 18.3906377,43.6936201 18.7210236,43.878136 L33.0947089,51.9648773 C32.7330988,51.4974085 32.4105189,50.9935053 32.1683203,50.4226991 C30.9585932,47.5516225 31.800592,44.3492269 34,42.3954034 L23.4618291,36.4646861 L23.4618291,36.4646861 Z" id="XMLID_159_"></path>
                        </g>
                    </g>
                </g>
            </g>
        </g>
    </g>
</svg>