<?xml version="1.0" encoding="UTF-8" standalone="no"?>
<svg width="130px" height="111px" viewBox="0 0 130 111" version="1.1" xmlns="http://www.w3.org/2000/svg" xmlns:xlink="http://www.w3.org/1999/xlink">
    <!-- Generator: Sketch 39 (31667) - http://www.bohemiancoding.com/sketch -->
    <title>Capa_1</title>
    <desc>Created with Sketch.</desc>
    <defs></defs>
    <g id="Je-suis-un-sympathisant" stroke="none" stroke-width="1" fill="none" fill-rule="evenodd">
        <g id="Desktop-HD" transform="translate(-1160.000000, -708.000000)" fill="#E0E0E0">
            <g id="Group-4" transform="translate(202.000000, 708.000000)">
                <g id="Législations">
                    <g id="Capa_1" transform="translate(958.000000, 0.000000)">
                        <g id="Group">
                            <path d="M78.7405493,101.124789 L70.1413839,101.124789 L70.1413839,22.0190388 L106.381328,22.0190388 L91.0307889,46.4694542 C90.2523263,47.7091904 90.6226738,49.3484034 91.8580111,50.1295334 C92.2960021,50.4067907 92.7830344,50.5383465 93.2649936,50.5383465 C94.1429483,50.5383465 95.0014557,50.0995444 95.5039896,49.299742 L108.817054,28.0940856 L122.129554,49.299742 C122.908298,50.5394781 124.541322,50.9112293 125.776096,50.1295334 C127.011151,49.3484034 127.380935,47.7091904 126.602755,46.4694542 L111.252779,22.0190388 L111.44669,22.0190388 C113.709643,22.0190388 115.54447,20.1772582 115.54447,17.9057287 C115.54447,15.6344823 113.709925,13.7927017 111.44669,13.7927017 L81.3014152,13.7927017 C79.5990567,11.3070051 77.0866686,9.42505052 74.1453087,8.53160304 C73.7250741,3.75004637 69.7267863,0 64.8539259,0 C59.9807836,0 55.9827776,3.75004637 55.5622613,8.53160304 C52.6209014,9.42505052 50.1085133,11.3070051 48.4064366,13.7927017 L18.2611616,13.7927017 C15.9979266,13.7927017 14.1630998,15.6344823 14.1630998,17.9057287 C14.1630998,20.1772582 15.9976448,22.0190388 18.2611616,22.0190388 L18.4550726,22.0190388 L3.10453353,46.4694542 C2.32607089,47.7091904 2.69641843,49.3484034 3.93147392,50.1295334 C4.36946485,50.4067907 4.85677908,50.5383465 5.33845635,50.5383465 C6.21612929,50.5383465 7.07520029,50.0995444 7.57773428,49.299742 L20.8907982,28.0940856 L34.2035803,49.299742 C34.9820429,50.5394781 36.6147851,50.9112293 37.8498406,50.1295334 C39.085178,49.3484034 39.4552437,47.7091904 38.6770629,46.4694542 L23.3268056,22.0190388 L59.5667497,22.0190388 L59.5667497,101.124223 L50.9678661,101.124223 C45.8216137,101.124223 41.649426,105.312505 41.649426,110.478261 L88.0587076,110.478261 C88.0587076,105.312505 83.8865199,101.124789 78.7405493,101.124789 L78.7405493,101.124789 Z" id="Shape"></path>
                            <path d="M40.3140489,53.604878 L1.40923721,53.604878 C0.631056422,53.604878 0,54.2380432 0,55.0194561 C0,66.5660907 9.35846246,75.9600205 20.861784,75.9600205 C32.3648236,75.9600205 41.7235679,66.5660907 41.7235679,55.0194561 C41.7232861,54.2383261 41.0922296,53.604878 40.3140489,53.604878 L40.3140489,53.604878 Z" id="Shape"></path>
                            <path d="M128.23936,53.604878 L89.3345484,53.604878 C88.5563676,53.604878 87.9253112,54.2380432 87.9253112,55.0194561 C87.9253112,66.5660907 97.2837737,75.9600205 108.787377,75.9600205 C120.290417,75.9600205 129.648879,66.5660907 129.648879,55.0194561 C129.648597,54.2383261 129.017541,53.604878 128.23936,53.604878 L128.23936,53.604878 Z" id="Shape"></path>
                        </g>
                    </g>
                </g>
            </g>
        </g>
    </g>
</svg>