<?xml version="1.0" encoding="UTF-8" standalone="no"?>
<svg width="27px" height="25px" viewBox="0 0 27 25" version="1.1" xmlns="http://www.w3.org/2000/svg" xmlns:xlink="http://www.w3.org/1999/xlink">
    <!-- Generator: Sketch 39 (31667) - http://www.bohemiancoding.com/sketch -->
    <title>Group</title>
    <desc>Created with Sketch.</desc>
    <defs></defs>
    <g id="Soutiens" stroke="none" stroke-width="1" fill="none" fill-rule="evenodd">
        <g id="Desktop-HD" transform="translate(-150.000000, -130.000000)" fill="#383838">
            <g id="Fil-d'ariane" transform="translate(150.000000, 130.000000)">
                <g id="icon">
                    <g id="Capa_1">
                        <g id="Group">
                            <path d="M3.674,23.876 C3.674,23.876 3.65,24.48 4.24,24.48 C4.974,24.48 11.051,24.472 11.051,24.472 L11.061,18.891 C11.061,18.891 10.965,17.971 11.858,17.971 L14.684,17.971 C15.74,17.971 15.675,18.891 15.675,18.891 L15.663,24.454 L22.33,24.454 C23.079,24.454 23.045,23.702 23.045,23.702 L23.045,13.413 L13.649,5.055 L3.674,13.413 C3.674,13.413 3.674,23.876 3.674,23.876 L3.674,23.876 Z" id="Shape"></path>
                            <path d="M0,12.635 C0,12.635 0.847,14.196 2.694,12.635 L13.732,3.297 L24.081,12.577 C26.219,14.119 27.02,12.577 27.02,12.577 L13.732,0.54 L0,12.635 L0,12.635 Z" id="Shape"></path>
                            <polygon id="Shape" points="23.83 3.275 21.168 3.275 21.179 6.503 23.83 8.752"></polygon>
                        </g>
                    </g>
                </g>
            </g>
        </g>
    </g>
</svg>