<?xml version="1.0" encoding="UTF-8" standalone="no"?>
<svg width="113px" height="111px" viewBox="0 0 113 111" version="1.1" xmlns="http://www.w3.org/2000/svg" xmlns:xlink="http://www.w3.org/1999/xlink">
    <!-- Generator: Sketch 39 (31667) - http://www.bohemiancoding.com/sketch -->
    <title>Group</title>
    <desc>Created with Sketch.</desc>
    <defs></defs>
    <g id="Je-suis-un-sympathisant" stroke="none" stroke-width="1" fill="none" fill-rule="evenodd">
        <g id="Desktop-HD" transform="translate(-1174.000000, -1643.000000)" fill="#E0E0E0">
            <g id="Group-4" transform="translate(202.000000, 708.000000)">
                <g id="Législations-Copy" transform="translate(0.000000, 935.000000)">
                    <g id="books-stack-from-top-view" transform="translate(972.000000, 0.000000)">
                        <g id="Capa_1">
                            <g id="Group">
                                <path d="M26.2648025,28.308981 L93.9029376,28.3061709 L93.9029376,21.9840886 L26.2648025,21.9894747 C18.3012391,21.9894747 15.3397464,19.872981 15.3397464,14.1742785 C15.3397464,6.85249367 18.2558981,6.32208228 23.0566362,6.32208228 C23.5708919,6.32208228 24.0757505,6.33027848 24.5791996,6.33987975 C25.0934553,6.34807595 25.5983139,6.35627215 26.0879023,6.35627215 L93.9085759,6.35627215 L93.9085759,0.0341898734 L26.0879023,0.0341898734 C25.6326133,0.0341898734 25.1632287,0.0245886076 24.6832723,0.0163924051 C24.1497526,0.00819620253 23.6066008,0 23.0592204,0 C19.2132266,0 9,0 9,14.1742785 C9.00023493,23.5551835 14.8090457,28.308981 26.2648025,28.308981 L26.2648025,28.308981 Z" id="Shape"></path>
                                <rect id="Rectangle-path" x="23" y="9" width="67.6489418" height="2.10010127"></rect>
                                <rect id="Rectangle-path" x="23" y="13" width="67.6489418" height="2.10010127"></rect>
                                <rect id="Rectangle-path" x="23" y="18" width="67.6489418" height="2.10010127"></rect>
                                <path d="M112.82263,73.0412152 L22.7059522,73.0412152 C22.1024241,73.0412152 21.4756383,73.0302089 20.8406299,73.0220127 C20.1327942,73.0110063 19.4115676,73 18.6802391,73 C13.5736258,73 0,73 0,91.8325316 C0,104.29919 7.71947401,110.61612 22.9420541,110.61612 L112.82263,110.610734 L112.82263,102.210095 L22.9420541,102.215481 C12.3597568,102.215481 8.42730977,99.4016076 8.42730977,91.8297215 C8.42730977,82.0975506 12.30079,81.3975949 18.6802391,81.3975949 C19.3634075,81.3975949 20.0367089,81.4086013 20.7034324,81.4196076 C21.3851913,81.4303797 22.054499,81.4413861 22.7059522,81.4413861 L112.822395,81.4413861 L112.822395,73.0412152 L112.82263,73.0412152 Z" id="Shape"></path>
                                <rect id="Rectangle-path" x="17" y="85" width="89.8916175" height="2.10010127"></rect>
                                <rect id="Rectangle-path" x="17" y="91" width="89.8916175" height="2.10010127"></rect>
                                <rect id="Rectangle-path" x="17" y="97" width="89.8916175" height="2.09986709"></rect>
                                <path d="M91.4117692,67.6835823 C92.0481871,67.6945886 92.6902432,67.7053608 93.3456902,67.7053608 C97.9216029,67.7053608 110.082376,67.7053608 110.082376,50.8321899 C110.082376,39.6617025 103.166588,34 89.5300021,34 L9,34.0053861 L9,41.5320759 L89.5300021,41.5266899 C99.0050873,41.5266899 102.533225,44.0464367 102.533225,50.8321899 C102.533225,59.5510759 99.0631143,60.1772658 93.3459252,60.1772658 C92.7341746,60.1772658 92.1254782,60.1718797 91.5327568,60.1580633 C90.9181871,60.1498671 90.3174782,60.1388608 89.7357983,60.1388608 L9,60.1388608 L9,67.6643797 L89.7383825,67.6643797 C90.276131,67.6643797 90.8359626,67.6753861 91.4117692,67.6835823 L91.4117692,67.6835823 Z" id="Shape"></path>
                                <rect id="Rectangle-path" x="14" y="55" width="80.5382245" height="2.0986962"></rect>
                                <rect id="Rectangle-path" x="14" y="50" width="80.5382245" height="2.10010127"></rect>
                                <rect id="Rectangle-path" x="14" y="44" width="80.5382245" height="2.10010127"></rect>
                            </g>
                        </g>
                    </g>
                </g>
            </g>
        </g>
    </g>
</svg>