<?xml version="1.0" encoding="UTF-8" standalone="no"?>
<svg width="92px" height="104px" viewBox="0 0 92 104" version="1.1" xmlns="http://www.w3.org/2000/svg" xmlns:xlink="http://www.w3.org/1999/xlink">
    <!-- Generator: Sketch 39 (31667) - http://www.bohemiancoding.com/sketch -->
    <title>Group</title>
    <desc>Created with Sketch.</desc>
    <defs></defs>
    <g id="Je-suis-un-étudiant" stroke="none" stroke-width="1" fill="none" fill-rule="evenodd">
        <g id="Desktop-HD" transform="translate(-1124.000000, -711.000000)" fill="#DFDFDF">
            <g id="Group-5" transform="translate(305.000000, 235.000000)">
                <g id="human-resources" transform="translate(819.000000, 476.000000)">
                    <g id="Capa_1">
                        <g id="gears-in-bald-head-side-view">
                            <g id="Capa_1">
                                <g id="Group">
                                    <ellipse id="Oval" cx="34.1163333" cy="30.9095172" rx="8.44259259" ry="8.42758621"></ellipse>
                                    <ellipse id="Oval" cx="52.4672963" cy="62.2924138" rx="5.41403704" ry="5.40441379"></ellipse>
                                    <path d="M82.1492963,44.529931 C88.9536667,11.2893793 61.8978519,-3.92331034 31.870963,0.864275862 C1.84048148,5.64468966 2.96855556,23.7765517 1.201,32.430069 C-2.31614815,54.1158621 20.0477407,78.3514483 20.0477407,78.3514483 L18.7723704,103.544552 L55.1868889,103.544552 L57.9747407,91.9611034 C57.9747407,91.9611034 59.5554815,94.6077241 68.9644815,95.4038621 C78.3770741,96.2 77.231037,84.7313103 77.231037,84.7313103 C77.231037,84.7313103 83.4965185,81.969931 83.4965185,79.9042759 C83.4965185,77.8314483 79.788963,75.1633103 79.788963,75.1633103 C79.788963,75.1633103 83.7731481,75.8769655 85.2173704,74.2022069 C86.6508148,72.5274483 83.457,66.4775172 83.457,66.4775172 C83.457,66.4775172 88.3716667,66.352 91.2672963,63.1710345 C94.1629259,59.9936552 82.1492963,50.5870345 82.1492963,44.529931 L82.1492963,44.529931 Z M30.1393333,49.0736552 C30.1393333,49.0736552 29.9345556,46.8286897 29.833963,45.7062069 C28.9286296,45.465931 28.0556296,45.1467586 27.2185556,44.7737931 C26.227,45.6129655 24.2438889,47.2877241 24.2438889,47.2877241 C24.2438889,47.2877241 23.9061852,47.4742069 23.7373333,47.5674483 C23.5684815,47.6571034 20.4141852,47.2877241 20.4141852,47.2877241 L14.9893704,40.8935172 L14.9893704,37.0742069 C14.9893704,37.0742069 17.0766667,35.3097931 18.1185185,34.4275862 C17.8921852,33.5704828 17.7556667,32.6990345 17.6945926,31.7988966 C16.3258148,31.1713103 13.5954444,29.9268966 13.5954444,29.9268966 L12.4997037,26.745931 L12.6254444,26.225931 L16.1282222,18.6088276 L19.8321852,17.6369655 C19.8321852,17.6369655 22.1889259,18.7128276 23.3637037,19.2471724 C24.0822222,18.6662069 24.8582222,18.1390345 25.6773333,17.6764138 C25.5587778,16.2598621 25.3288519,13.4231724 25.3288519,13.4231724 L28.0376667,10.7227586 L36.4012222,10.0485517 L39.110037,12.7525517 C39.110037,12.7525517 39.2824815,14.9078621 39.3722963,15.9837241 C40.4608519,16.2777931 41.4991111,16.6686897 42.4870741,17.1456552 C43.3924074,16.3674483 45.2066667,14.8182069 45.2066667,14.8182069 L49.039963,14.8182069 L54.5042963,21.1801379 L54.5042963,24.9958621 C54.5042963,24.9958621 52.2876667,26.8893793 51.1775556,27.8397241 C51.3428148,28.6107586 51.429037,29.4068966 51.4685556,30.2102069 C52.8696667,31.0171034 55.6647037,32.6308966 55.6647037,32.6308966 L56.6382963,36.3282759 L52.4385556,43.5795862 L48.7345926,44.5514483 C48.7345926,44.5514483 46.5610741,43.2962759 45.4725185,42.6722759 C44.8581852,43.1492414 44.2007407,43.5724138 43.5181481,43.9633103 C43.6474815,45.4121379 43.9097407,48.3062069 43.9097407,48.3062069 L41.2045185,51.0102069 L32.8517407,51.7704828 L30.1393333,49.0736552 L30.1393333,49.0736552 Z M64.2150741,70.4223448 L61.8403704,71.0463448 C61.8403704,71.0463448 60.4464444,70.2394483 59.7458889,69.8413793 C59.3507037,70.1462069 58.9267778,70.4151724 58.4884815,70.6662069 C58.5711111,71.5986207 58.739963,73.4491034 58.739963,73.4491034 L57.0083333,75.1812414 L51.6517778,75.6689655 L49.9165556,73.9368276 C49.9165556,73.9368276 49.7836296,72.5023448 49.718963,71.7743448 C49.136963,71.6201379 48.5801111,71.4121379 48.0448148,71.1754483 C47.4089259,71.7133793 46.1371481,72.7856552 46.1371481,72.7856552 C46.1371481,72.7856552 45.918,72.904 45.8138148,72.9685517 C45.706037,73.0331034 43.6798148,72.7856552 43.6798148,72.7856552 L40.2021852,68.6794483 L40.2021852,66.2264828 C40.2021852,66.2264828 41.5386296,65.0968276 42.2068519,64.5302069 C42.0631481,63.9851034 41.9769259,63.4184828 41.9374074,62.8411034 C41.0572222,62.4430345 39.3076296,61.6397241 39.3076296,61.6397241 L38.6034815,59.6063448 L38.6825185,59.2692414 L40.9278889,54.3884138 L43.3061852,53.7644138 C43.3061852,53.7644138 44.8150741,54.4493793 45.5695185,54.7972414 C46.0293704,54.4242759 46.5287407,54.0907586 47.0532593,53.7895172 C46.9814074,52.8822069 46.8341111,51.0568276 46.8341111,51.0568276 L48.5693333,49.3246897 L53.9330741,48.8943448 L55.6718889,50.6264828 C55.6718889,50.6264828 55.7796667,52.0071724 55.8371481,52.6993103 C56.5341111,52.8893793 57.2023333,53.1404138 57.8346296,53.4452414 C58.4166296,52.9467586 59.5806296,51.9497931 59.5806296,51.9497931 L62.0415556,51.9497931 L65.5515185,56.038069 L65.5515185,58.4910345 C65.5515185,58.4910345 64.1288519,59.7067586 63.4139259,60.3164138 C63.5217037,60.8113103 63.5755926,61.3205517 63.6007407,61.8405517 C64.4988889,62.3605517 66.2951852,63.3897931 66.2951852,63.3897931 L66.9167037,65.7638621 L64.2150741,70.4223448 L64.2150741,70.4223448 Z" id="Shape"></path>
                                </g>
                            </g>
                        </g>
                    </g>
                </g>
            </g>
        </g>
    </g>
</svg>