<?xml version="1.0" encoding="UTF-8" standalone="no"?>
<svg width="129px" height="89px" viewBox="0 0 129 89" version="1.1" xmlns="http://www.w3.org/2000/svg" xmlns:xlink="http://www.w3.org/1999/xlink">
    <!-- Generator: Sketch 39 (31667) - http://www.bohemiancoding.com/sketch -->
    <title>Shape</title>
    <desc>Created with Sketch.</desc>
    <defs></defs>
    <g id="Je-suis-un-client" stroke="none" stroke-width="1" fill="none" fill-rule="evenodd">
        <g id="Desktop-HD" transform="translate(-197.000000, -385.000000)" fill="#D85E72">
            <g id="Group-6" transform="translate(197.000000, 385.000000)">
                <path d="M124.996185,8.46299588 C105.747477,8.46299588 89.1227541,20.547607 81.482156,37.9244734 C85.4225941,35.3731983 90.049717,33.9013588 94.9961851,33.9013588 C109.331959,33.9013588 121.011752,46.2578591 121.011752,61.4501922 C121.011752,76.6428501 109.331959,89 94.9961851,89 C80.660411,89 69,76.6428501 69,61.4501922 C69,60.9099871 69.0187669,60.374005 69.0476864,59.8406215 C69.0292272,59.6739798 69,59.5105864 69,59.3390721 C69,26.6152499 94.1172163,0 124.996185,0 C127.222373,0 129,1.88113496 129,4.2173675 C129,6.58218576 127.222373,8.46299588 124.996185,8.46299588 L124.996185,8.46299588 Z M55.9937033,8.46299588 C36.7387436,8.46299588 20.0994754,20.5554031 12.4566846,37.9410401 C16.4020654,35.3800199 21.037211,33.9013588 25.9932418,33.9013588 C40.3290894,33.9013588 51.9895602,46.2578591 51.9895602,61.4501922 C51.9895602,76.6428501 40.3290894,89 25.9932418,89 C11.6598555,89 0,76.6428501 0,61.4501922 C0,60.9109616 0.0187670172,60.3762788 0.0476866831,59.8438699 C0.0286120099,59.6765785 0,59.5118858 0,59.3390721 C0,26.6152499 25.1148839,0 55.9937033,0 C58.2008276,0 60,1.88113496 60,4.2173675 C60,6.58218576 58.2008276,8.46299588 55.9937033,8.46299588 L55.9937033,8.46299588 Z" id="Shape"></path>
            </g>
        </g>
    </g>
</svg>