<?xml version="1.0" encoding="UTF-8" standalone="no"?>
<svg width="36px" height="37px" viewBox="0 0 36 37" version="1.1" xmlns="http://www.w3.org/2000/svg" xmlns:xlink="http://www.w3.org/1999/xlink">
    <!-- Generator: Sketch 39 (31667) - http://www.bohemiancoding.com/sketch -->
    <title>Group 8</title>
    <desc>Created with Sketch.</desc>
    <defs></defs>
    <g id="Home" stroke="none" stroke-width="1" fill="none" fill-rule="evenodd">
        <g id="Desktop-HD" transform="translate(-1355.000000, -21.000000)">
            <g id="Header" transform="translate(-2.000000, 0.000000)">
                <g id="barre-de-recherche" transform="translate(1192.000000, 21.192931)">
                    <g id="Group-8" transform="translate(165.000000, 0.000000)">
                        <path d="M-3.19744231e-14,3.55271368e-15 L30.9543518,3.55271368e-15 C33.7153256,3.55271368e-15 35.953537,2.23547051 35.953537,4.99918528 L35.953537,30.9543518 C35.953537,33.7153256 33.7180665,35.953537 30.9543518,35.953537 C30.9543518,35.953537 -6.10729123e-09,35.953537 -3.19744231e-14,35.953537 C6.10722725e-09,35.9535371 -3.19744231e-14,3.55271368e-15 -3.19744231e-14,3.55271368e-15 Z" id="Base" fill-opacity="0.5" fill="#D85E72"></path>
                        <path d="M24.5472595,24.5476518 C24.2328319,24.8620892 23.7228197,24.8620892 23.4078591,24.5476518 L20.9372044,22.0769198 C20.0040473,22.7740116 18.8502579,23.1913073 17.5957452,23.1913073 C14.5052951,23.1913073 12,20.6864669 12,17.5959201 C12,14.5053734 14.5052951,12 17.5957452,12 C20.6861953,12 23.1914903,14.5053734 23.1914903,17.5959201 C23.1914903,18.8499392 22.7736747,20.0042976 22.0766047,20.9374839 L24.5472595,23.4082158 C24.86222,23.7226533 24.86222,24.2326814 24.5472595,24.5476518 L24.5472595,24.5476518 Z M17.5957452,13.5988343 C15.3883569,13.5988343 13.5987843,15.3884629 13.5987843,17.5959201 C13.5987843,19.8028444 15.3883569,21.5930059 17.5957452,21.5930059 C19.8031334,21.5930059 21.592706,19.8028444 21.592706,17.5959201 C21.592706,15.3884629 19.8031334,13.5988343 17.5957452,13.5988343 L17.5957452,13.5988343 Z" id="Search-Icon" fill="#FFFFFF"></path>
                    </g>
                </g>
            </g>
        </g>
    </g>
</svg>