<?xml version="1.0" encoding="UTF-8" standalone="no"?>
<svg width="126px" height="102px" viewBox="0 0 126 102" version="1.1" xmlns="http://www.w3.org/2000/svg" xmlns:xlink="http://www.w3.org/1999/xlink">
    <!-- Generator: Sketch 39 (31667) - http://www.bohemiancoding.com/sketch -->
    <title>Group</title>
    <desc>Created with Sketch.</desc>
    <defs></defs>
    <g id="Je-suis-un-étudiant" stroke="none" stroke-width="1" fill="none" fill-rule="evenodd">
        <g id="Desktop-HD" transform="translate(-979.000000, -714.000000)" fill="#DFDFDF">
            <g id="man-working-on-a-laptop-from-side-view" transform="translate(979.000000, 714.000000)">
                <g id="Capa_1">
                    <g id="Group">
                        <path d="M107.086108,90.2564216 L85.6266923,90.2564216 L41.1073385,90.2564216 C39.2512615,90.2564216 37.7463692,91.7621743 37.7463692,93.6196735 L37.7463692,95.6895784 C37.7463692,97.546916 39.2511,99.053477 41.1073385,99.053477 L85.6270154,99.053477 L107.086431,99.053477 L118.203508,99.053477 L118.203508,90.2569065 L107.086108,90.2564216 L107.086108,90.2564216 L107.086108,90.2564216 Z" id="Shape"></path>
                        <ellipse id="Oval" cx="34.1148231" cy="18.6905705" rx="18.6076154" ry="18.6202536"></ellipse>
                        <path d="M79.5147231,64.3597369 L36.8735769,64.3361363 L35.8639615,64.3329033 L35.8639615,59.3812964 L35.8289077,55.2366371 C35.8289077,45.3364945 27.8083615,37.3101775 17.9144538,37.3101775 C17.5792615,37.3101775 17.2463308,37.3214929 16.9155,37.3395975 L16.8903,37.3101775 C7.5621,37.3105008 0,44.8775753 0,54.2122726 L0,101.947464 L35.8639615,101.947464 L35.8639615,81.6122853 L35.3895231,81.5749445 C35.3557615,81.5718732 35.3473615,81.5752678 35.3263615,81.5752678 C32.8998923,81.5752678 30.5743846,80.5530048 28.9355769,78.7627512 L14.3790231,62.8625515 C13.9149231,62.3557845 13.9493308,61.5688811 14.4559154,61.1047892 C14.9620154,60.640374 15.7487077,60.6749667 16.2124846,61.1817338 L30.7688769,77.0817718 C31.9516615,78.3738257 33.6197077,79.163962 35.3761154,79.1895024 C35.4929077,79.1911189 37.0874538,79.2140729 37.0874538,79.2140729 L79.5147231,79.2140729 C83.6137615,79.2140729 86.9369308,75.8888082 86.9369308,71.7868241 C86.9370923,67.6848399 83.6137615,64.3597369 79.5147231,64.3597369 L79.5147231,64.3597369 Z" id="Shape"></path>
                        <path d="M123.608746,38.0052647 C121.873177,37.4102377 119.983985,38.3364818 119.388877,40.0733914 L105.301269,81.227401 L54.8912538,81.227401 C53.0568231,81.227401 51.5688923,82.7155341 51.5688923,84.5515341 C51.5688923,86.3875341 53.0568231,87.8759905 54.8912538,87.8759905 L107.634692,87.8759905 C108.764492,87.8759905 109.761831,87.3097369 110.3613,86.446859 C110.568554,86.1730269 110.737685,85.863794 110.855446,85.5207765 L125.676923,42.2265452 C126.269769,40.4906054 125.345285,38.5999683 123.608746,38.0052647 L123.608746,38.0052647 Z" id="Shape"></path>
                    </g>
                </g>
            </g>
        </g>
    </g>
</svg>