<svg width="46" height="33" xmlns="http://www.w3.org/2000/svg"><g fill="none"><path d="M44.949 18.083c.654.3 1.143 1.155 1.024 1.833-.114.644-.723.824-1.283.377-.783-.625-1.214-.605-1.934.036-.509.455-1.084.836-1.571 1.312-.83.814-1.669 1.629-2.401 2.528-1.199 1.47-2.232 3.086-3.488 4.5-1.56 1.758-3.542 2.758-5.957 2.726-1.808-.024-3.617-.009-5.426-.006-1.297.002-2.573.182-3.756.731-2.943 1.366-5.748 1.009-8.336-.803-1.974-1.383-3.839-2.934-5.702-4.472-1.257-1.038-2.526-2.006-4.248-2.375-.849.709-1.576.577-1.843-.337-.059-.199-.027-.513.096-.664 1.701-2.107 3.087-4.421 4.352-6.807 1.387-2.615 2.499-5.355 3.249-8.233.427-1.639 1.162-3.105 2.298-4.36 1.05-1.159 1.933-1.249 3.293-.456.83.485 1.712.889 2.603 1.252 1.104.45 2.23.495 3.414.18 2.487-.663 4.736-1.68 6.624-3.528 1.831-1.791 2.771-2.018 5.581-.318 1.558.943 2.406 2.514 3.133 4.081 1.713 3.686 4.148 6.845 6.793 9.853.821.934 1.834 1.697 2.773 2.522.204.18.459.313.709.427zm-1.674.438l-.336-.354c-3.98-3.519-7.118-7.675-9.441-12.484-.681-1.408-1.447-2.807-2.851-3.698-1.377-.874-1.871-.878-3.08.173-.213.186-.436.363-.632.565-1.867 1.929-4.246 2.849-6.746 3.574-1.792.519-3.506.404-5.146-.45-.743-.388-1.438-.89-2.11-1.4-1.048-.796-1.648-.78-2.318.379-.643 1.112-1.248 2.29-1.617 3.516-1.486 4.941-3.64 9.528-6.726 13.657-.197.262-.362.548-.689 1.045.774-.343 1.316-.507 1.773-.803l3.604-2.437c.388-.25.512-.556.593-.977.094-.488.29-.956.441-1.432l.243.062-.239 1.451c.303-.176.462-.422.618-.67l.523-.834.082.73c1.196-1.006 1.014-2.546 1.914-3.581l-.54 2.353c1.241-.647 2.152-2.204 3.707-.849l1.109-2.981.218.067-.769 3.187c.279.198.436.324.607.425.187.11.387.195.596.299.723-2.704.899-3.104 1.698-3.766l-1.19 4.072.907.305 1.537-3.573.249.099-1.283 3.711 1.15.195c.459-1.348.663-2.701 1.644-3.743l-1.069 3.904h1.137c.594-1.443.872-2.957 1.607-4.281l.278.09-1.139 4.134c.597.279.861.049 1.056-.459.389-1.017.822-2.018 1.237-3.025l.322.121-1 3.143c.66.23.888-.137 1.067-.577.244-.599.471-1.208.731-1.8.076-.171.239-.302.362-.452l.169.102-.741 2.437c1.288-.384 1.111-1.662 1.949-2.402l-.618 1.859c1.477-.598 2.712-1.231 3.682-2.282.681-.739 1.359-1.4 2.424-.988l.849-1.524.204.118-.577 1.602.27.169 1.213-1.189.132.127-.631 1.223c3.217 2.879 7.183 5.064 9.583 4.117zm-2.009 1.923c.22-.12.384-.342.473-.424-1.268-.416-2.602-.663-3.747-1.274-1.551-.827-2.978-1.905-4.419-2.931-.601-.429-1.188-.805-2.01-.884-1.41 2.056-3.524 3.152-5.758 3.99-3.931 1.475-7.718 1.263-11.216-1.309-.381-.281-.812-.493-1.057-.638L2.403 23.768l3.424 1.55.92-2.676.241.077c-.2.817-.377 1.642-.609 2.45-.138.48-.071.79.497.922.519-.944.679-2.092 1.496-2.904-.188.825-.468 1.613-.742 2.403-.361 1.044-.359 1.045.676 1.672l1.322-3.719.306.099-1.192 4.117 1.273.969c.501-1.328.57-2.683 1.527-3.681l-1.047 4.005 1.102.66c.516-1.602.871-3.117 1.587-4.489l.228.075-1.29 4.885 1.032.428c.272-.787.518-1.51.773-2.229.252-.708.513-1.412.771-2.117l.247.086c-.104 1.574-.883 2.982-1.243 4.587l1.137.429 1.656-3.811.254.099-1.254 3.911.893.106 1.641-3.959.34.116-1.242 3.681c.668.075.991-.126 1.221-.736.417-1.103.954-2.161 1.441-3.236l.311.127-1.204 3.313c.913-.04 1.33-.487 1.577-1.22.251-.749.598-1.465.902-2.196l.258.09-.694 2.561.331.165c.909-.78.927-2.191 1.903-2.967l-.868 2.49c1.032.129 1.038.131 1.417-.669.464-.983.919-1.972 1.494-3.208.056 1.571-.84 2.578-1.082 3.789.792.013.803.018 1.002-.398.327-.682.638-1.373.956-2.061l.19.07-.78 2.331c.57.334.764.04.962-.382.312-.667.679-1.308 1.022-1.959l.173.09-1.039 2.426c.92 0 1.671-.037 2.417.007 1.95.114 3.54-.696 4.862-2.025 1.279-1.286 2.482-2.655 3.652-4.044 1.099-1.305 2.193-2.593 3.714-3.426z" fill="#000"/><path d="M42.939 18.167l.336.354c-2.4.947-6.367-1.238-9.583-4.117l.631-1.223-.132-.127-1.213 1.189-.27-.169.577-1.602-.204-.118-.849 1.524c-1.066-.412-1.743.249-2.424.988-.97 1.051-2.206 1.684-3.682 2.282l.618-1.859c-.838.74-.661 2.018-1.949 2.402l.741-2.437-.169-.102c-.123.15-.287.282-.362.452-.26.593-.487 1.201-.731 1.8-.179.44-.407.807-1.067.577l1-3.143-.322-.121c-.414 1.007-.848 2.008-1.237 3.025-.194.508-.459.739-1.056.459l1.139-4.134-.278-.09c-.734 1.324-1.012 2.838-1.607 4.281h-1.137l1.069-3.904c-.981 1.043-1.186 2.395-1.644 3.743l-1.15-.195 1.283-3.711-.249-.099-1.537 3.573-.907-.305 1.19-4.072c-.799.662-.974 1.062-1.698 3.766-.209-.103-.409-.189-.596-.299-.171-.101-.328-.228-.607-.425l.769-3.187-.218-.067-1.109 2.981c-1.554-1.356-2.466.202-3.707.849l.54-2.353c-.9 1.035-.719 2.575-1.914 3.581l-.082-.73.019-.03.021-.099.469-.814-.278-.106-.191.919-.047.08.001.001.006.048-.523.834c-.156.248-.314.494-.618.67l.239-1.451-.243-.062c-.151.476-.347.944-.441 1.432-.081.421-.206.726-.593.977L3.359 22.24c-.458.295-.999.459-1.773.803.327-.497.492-.783.689-1.045 3.086-4.128 5.24-8.716 6.726-13.657.369-1.226.973-2.403 1.617-3.516.67-1.159 1.27-1.175 2.318-.379.672.51 1.367 1.011 2.11 1.4 1.64.854 3.353.969 5.146.45 2.5-.725 4.879-1.644 6.746-3.574.197-.202.419-.378.632-.565 1.209-1.051 1.703-1.047 3.08-.173 1.404.891 2.17 2.291 2.851 3.698 2.323 4.809 5.461 8.965 9.441 12.484zm-29.624-3.139l.597-2.073-.277-.084-.642 2.059.322.099zm28.424 4.991c-.089.082-.253.304-.473.424-1.521.833-2.616 2.12-3.714 3.426-1.17 1.39-2.373 2.758-3.652 4.044-1.322 1.329-2.912 2.139-4.862 2.025-.746-.044-1.497-.007-2.417-.007l1.039-2.426-.173-.09c-.343.651-.71 1.292-1.022 1.959-.198.422-.392.716-.962.382l.78-2.331-.19-.07c-.318.688-.629 1.378-.956 2.061-.199.416-.21.412-1.002.398.242-1.211 1.138-2.218 1.082-3.789-.576 1.236-1.03 2.225-1.494 3.208-.379.8-.384.798-1.417.669l.868-2.49c-.977.776-.994 2.187-1.903 2.967l-.331-.165.694-2.561-.258-.09c-.304.731-.651 1.447-.902 2.196-.247.733-.663 1.18-1.577 1.22l1.204-3.313-.311-.127c-.487 1.075-1.024 2.133-1.441 3.236-.23.611-.553.812-1.221.736l1.242-3.681-.34-.116-1.641 3.959-.893-.106 1.254-3.911-.254-.099-1.656 3.811-1.137-.429c.36-1.605 1.139-3.014 1.243-4.587l-.247-.086c-.258.705-.519 1.409-.771 2.117-.256.719-.501 1.442-.773 2.229l-1.032-.428 1.29-4.885-.228-.075c-.716 1.372-1.071 2.887-1.587 4.489l-1.102-.66 1.047-4.005c-.957.998-1.026 2.353-1.527 3.681l-1.273-.969 1.192-4.117-.306-.099-1.322 3.719c-1.034-.627-1.037-.629-.676-1.672.274-.79.554-1.578.742-2.403-.817.812-.977 1.96-1.496 2.904-.568-.131-.634-.441-.497-.922.232-.808.409-1.633.609-2.45l-.241-.077-.92 2.676-3.424-1.55 11.129-6.794c.244.145.676.357 1.057.638 3.498 2.572 7.284 2.784 11.216 1.309 2.233-.838 4.348-1.934 5.758-3.99.822.08 1.409.456 2.01.884 1.441 1.026 2.868 2.103 4.419 2.931 1.144.611 2.479.858 3.747 1.274zm-13.657 9.279l.563-1.591-.319-.095c-.096.554-.556.993-.504 1.595l.26.091z" fill="#C1272D"/><path d="M28.645 27.708l-.563 1.591-.26-.091c-.051-.602.409-1.041.504-1.595l.319.095zM13.911 12.954l-.597 2.073-.322-.099.642-2.059.277.084zm-4.229 3.507l-.5.814.204-.919.296.106zm-.337.813l-.095.44-.095-.07-.015-.015v.005l-.005-.005.21-.355zm-.099.161l-.085.135-.025-.215.015.01.095.07zm-.11-.081l.015.015-.015-.01v-.005z" fill="#000"/></g></svg>