<svg width="92" height="82" viewBox="0 0 92 82" xmlns="http://www.w3.org/2000/svg"><g fill="#E0E0E0"><path d="M58.463 63.281l-7.534 7.521v-29.802c0-1.811-1.472-3.28-3.286-3.28s-3.286 1.469-3.286 3.28v29.802l-7.534-7.521c-1.283-1.281-3.363-1.281-4.646 0s-1.283 3.357 0 4.638l13.141 13.118c.153.154.322.29.504.412l.243.133.322.169.329.102.284.084c.212.041.427.064.642.064.215 0 .43-.023.644-.066l.284-.084.329-.102.322-.169.243-.133c.181-.121.35-.257.504-.412l13.141-13.118c1.283-1.281 1.283-3.357 0-4.638-1.283-1.281-3.365-1.279-4.648.002zM78.586 26.217c-.225-.031-4.036-.549-7.695.003l-.25.02c-.798 0-1.498-.581-1.621-1.394-.136-.895.48-1.732 1.377-1.868 2.515-.382 5.03-.321 6.708-.203-1.102-12.713-11.669-22.775-24.393-22.775-7.717 0-15.472 3.902-20.183 10.052 3.21 2.709 5.257 6.752 5.257 11.268 0 .907-.734 1.64-1.643 1.64s-1.643-.733-1.643-1.64c0-4.038-2.105-7.588-5.272-9.637-.373-.241-.759-.454-1.153-.649l-.345-.166c-.447-.203-.904-.384-1.372-.526l-.174-.044c-.425-.123-.858-.216-1.296-.29l-.383-.059c-.496-.064-.997-.108-1.505-.108-6.34 0-11.5 5.151-11.5 11.48l.02.4.02.344-.015.262-.025.633v1.033l-.931.444c-6.125 2.931-10.569 10.002-10.569 16.815 0 9.809 7.992 17.787 17.817 17.787h23.255v-18.04c0-3.623 2.942-6.56 6.571-6.56 3.629 0 6.571 2.937 6.571 6.56v18.04h3.866l.286-.015.325-.018.445.018.284.015h16.105c9.083 0 16.475-7.378 16.475-16.446 0-7.89-5.766-14.924-13.414-16.377z"/></g></svg>