<svg width="130" height="111" xmlns="http://www.w3.org/2000/svg"><g fill="#E0E0E0" fill-rule="evenodd"><path d="M78.74 101.125h-8.599V22.019h36.24l-15.35 24.45a2.66 2.66 0 0 0 .827 3.66 2.64 2.64 0 0 0 3.646-.83l13.313-21.205L122.13 49.3a2.638 2.638 0 0 0 3.646.83 2.66 2.66 0 0 0 .827-3.66l-15.35-24.451h.194a4.106 4.106 0 0 0 4.097-4.113 4.106 4.106 0 0 0-4.097-4.113H81.3a13.417 13.417 0 0 0-7.156-5.261C73.725 3.75 69.727 0 64.854 0s-8.871 3.75-9.292 8.532a13.415 13.415 0 0 0-7.156 5.26H18.261a4.106 4.106 0 0 0-4.098 4.114 4.106 4.106 0 0 0 4.098 4.113h.194l-15.35 24.45a2.66 2.66 0 0 0 .826 3.66c.438.278.926.41 1.407.41.878 0 1.737-.44 2.24-1.24L20.89 28.095 34.204 49.3a2.638 2.638 0 0 0 3.646.83 2.66 2.66 0 0 0 .827-3.66l-15.35-24.451h36.24v79.105h-8.6c-5.145 0-9.318 4.189-9.318 9.354h46.41c0-5.165-4.172-9.353-9.318-9.353z"/><path d="M40.314 53.605H1.409c-.778 0-1.409.633-1.409 1.414C0 66.566 9.358 75.96 20.862 75.96c11.503 0 20.862-9.394 20.862-20.94 0-.782-.632-1.415-1.41-1.415zM128.24 53.605H89.334c-.779 0-1.41.633-1.41 1.414 0 11.547 9.359 20.941 20.862 20.941 11.503 0 20.862-9.394 20.862-20.94 0-.782-.631-1.415-1.41-1.415z"/></g></svg>