<svg width="113" height="111" xmlns="http://www.w3.org/2000/svg"><g fill="#E0E0E0" fill-rule="evenodd"><path d="M26.265 28.309l67.638-.003v-6.322l-67.638.005c-7.964 0-10.925-2.116-10.925-7.815 0-7.322 2.916-7.852 7.717-7.852.514 0 1.019.008 1.522.018.514.008 1.02.016 1.509.016h67.82V.034h-67.82c-.455 0-.925-.01-1.405-.018A105.48 105.48 0 0 0 23.06 0C19.213 0 9 0 9 14.174c0 9.381 5.809 14.135 17.265 14.135z"/><path d="M23 9h67.649v2.1H23zM23 13h67.649v2.1H23zM23 18h67.649v2.1H23zM112.823 73.041H22.706c-.604 0-1.23-.01-1.865-.019-.708-.011-1.43-.022-2.16-.022C13.573 73 0 73 0 91.833c0 12.466 7.72 18.783 22.942 18.783l89.88-.005v-8.4l-89.88.004c-10.582 0-14.515-2.813-14.515-10.385 0-9.732 3.874-10.432 10.253-10.432.683 0 1.357.01 2.023.022.682.01 1.351.021 2.003.021h90.116v-8.4z"/><path d="M17 85h89.892v2.1H17zM17 91h89.892v2.1H17zM17 97h89.892v2.1H17zM91.412 67.684c.636.01 1.278.021 1.934.021 4.576 0 16.736 0 16.736-16.873 0-11.17-6.915-16.832-20.552-16.832L9 34.005v7.527l80.53-.005c9.475 0 13.003 2.52 13.003 9.305 0 8.72-3.47 9.345-9.187 9.345-.612 0-1.22-.005-1.813-.019-.615-.008-1.216-.02-1.797-.02H9v7.526h80.738c.538 0 1.098.011 1.674.02z"/><path d="M14 55h80.538v2.099H14zM14 50h80.538v2.1H14zM14 44h80.538v2.1H14z"/></g></svg>