<svg width="92" height="104" xmlns="http://www.w3.org/2000/svg"><g fill="#DFDFDF" fill-rule="evenodd"><ellipse cx="34.116" cy="30.91" rx="8.443" ry="8.428"/><ellipse cx="52.467" cy="62.292" rx="5.414" ry="5.404"/><path d="M82.15 44.53C88.953 11.29 61.897-3.923 31.87.864 1.841 5.644 2.969 23.777 1.201 32.43c-3.517 21.686 18.847 45.921 18.847 45.921l-1.276 25.194h36.415l2.788-11.584s1.58 2.647 10.99 3.443c9.412.796 8.266-10.673 8.266-10.673s6.266-2.761 6.266-4.827c0-2.073-3.708-4.74-3.708-4.74s3.984.713 5.428-.962c1.434-1.675-1.76-7.724-1.76-7.724s4.915-.126 7.81-3.307c2.896-3.177-9.118-12.584-9.118-18.641zm-52.01 4.544s-.205-2.245-.306-3.368c-.905-.24-1.778-.56-2.615-.932l-2.975 2.514-.507.28c-.169.09-3.323-.28-3.323-.28l-5.425-6.394v-3.82l3.13-2.646a13.933 13.933 0 0 1-.424-2.63c-1.37-.627-4.1-1.871-4.1-1.871L12.5 26.746l.125-.52 3.503-7.617 3.704-.972s2.357 1.076 3.532 1.61a16.91 16.91 0 0 1 2.313-1.57c-.118-1.417-.348-4.254-.348-4.254l2.709-2.7 8.363-.674 2.709 2.704s.172 2.155.262 3.23c1.089.295 2.127.686 3.115 1.163.905-.779 2.72-2.328 2.72-2.328h3.833l5.464 6.362v3.816s-2.216 1.893-3.326 2.844c.165.77.251 1.567.29 2.37 1.402.807 4.197 2.42 4.197 2.42l.973 3.698-4.2 7.252-3.703.971s-2.174-1.255-3.262-1.879c-.615.477-1.272.9-1.955 1.291l.392 4.343-2.705 2.704-8.353.76-2.713-2.696zm34.075 21.348l-2.375.624s-1.394-.807-2.094-1.205c-.395.305-.82.574-1.258.825.083.933.252 2.783.252 2.783l-1.732 1.732-5.356.488-1.735-1.732s-.133-1.435-.198-2.163a11.3 11.3 0 0 1-1.674-.599c-.636.538-1.908 1.61-1.908 1.61s-.219.119-.323.184c-.108.064-2.134-.183-2.134-.183l-3.478-4.107v-2.453l2.005-1.696a9.052 9.052 0 0 1-.27-1.689 712.03 712.03 0 0 1-2.63-1.201l-.704-2.034.08-.337 2.245-4.88 2.378-.625s1.51.685 2.264 1.033c.46-.373.959-.706 1.483-1.007l-.219-2.733 1.735-1.732 5.364-.43 1.739 1.731s.108 1.381.165 2.073c.697.19 1.365.441 1.998.746l1.746-1.495h2.46l3.51 4.088v2.453s-1.422 1.216-2.137 1.825c.108.495.162 1.005.187 1.525.898.52 2.694 1.549 2.694 1.549l.622 2.374-2.702 4.658z"/></g></svg>