<svg width="129" height="89" xmlns="http://www.w3.org/2000/svg"><path d="M124.996 8.463c-19.249 0-35.873 12.085-43.514 29.461 3.94-2.55 8.568-4.023 13.514-4.023 14.336 0 26.016 12.357 26.016 27.55 0 15.192-11.68 27.549-26.016 27.549C80.66 89 69 76.643 69 61.45c0-.54.019-1.076.048-1.61-.019-.166-.048-.33-.048-.5C69 26.614 94.117 0 124.996 0 127.222 0 129 1.881 129 4.217c0 2.365-1.778 4.246-4.004 4.246zm-69.002 0c-19.255 0-35.895 12.092-43.537 29.478 3.945-2.561 8.58-4.04 13.536-4.04 14.336 0 25.997 12.357 25.997 27.55C51.99 76.642 40.33 89 25.993 89 11.66 89 0 76.643 0 61.45c0-.539.019-1.074.048-1.606-.02-.167-.048-.332-.048-.505C0 26.615 25.115 0 55.994 0 58.2 0 60 1.881 60 4.217c0 2.365-1.8 4.246-4.006 4.246z" fill="#D85E72" fill-rule="evenodd"/></svg>