<svg width="19" height="19" xmlns="http://www.w3.org/2000/svg"><path d="M13.759 7.344l2.755 1.012-2.291 6.238c-.214.587-1.377 2.423-2.187 2.797l-.197.536a.337.337 0 0 1-.315.221l-.116-.021a.336.336 0 0 1-.199-.432l.186-.507c-.411-.798-.104-3.117.076-3.607l2.288-6.238zM17.746.743c-.758-.277-1.644.296-1.898.988l-1.659 4.521 2.754 1.011 1.657-4.52c.209-.566-.095-1.722-.854-2zM12.761 7.11l.234.042a.67.67 0 0 0 .63-.439l1.751-4.723a.671.671 0 1 0-1.261-.466l-1.751 4.723a.671.671 0 0 0 .397.863zm-2.819 8.856c-.181-.171-.406-.384-.77-.546-.3-.134-.592-.14-.806-.145l-.074-.001c-.134-.366-.405-.596-.811-.686-.538-.114-.968.14-1.266.336l.102-.457c.103-.415.209-.843.13-1.245a.717.717 0 0 0-.653-.576c-.833-.046-1.513.402-2.113.807-.63.425-1.033.679-1.435.535-.49-.174-.54-1.502-.304-2.684.211-1.065.603-3.047 1.609-3.948.339-.303.829-.631 1.232-.472.474.186.865.966.953 1.896a.714.714 0 1 0 1.423-.133c-.142-1.515-.852-2.7-1.853-3.094-.6-.233-1.553-.296-2.709.738C1.34 7.417.875 9.326.539 11.026c-.169.849-.58 3.666 1.227 4.309 1.101.392 1.995-.213 2.713-.698l.387-.254c-.119.518-.194 1.073.119 1.54.467.702 1.126.778 1.96.229l.104-.069a.97.97 0 0 0 .462.461c.3.147.6.154.819.16l.26.022c.134.059.214.132.368.278.116.109.238.223.393.34a.713.713 0 0 0 .999-.144.715.715 0 0 0-.144-1.001l-.265-.234z" fill="#383838"/></svg>