<svg width="126" height="102" xmlns="http://www.w3.org/2000/svg"><g fill="#DFDFDF" fill-rule="evenodd"><path d="M107.086 90.256H41.107a3.362 3.362 0 0 0-3.36 3.364v2.07a3.363 3.363 0 0 0 3.36 3.363H118.204v-8.796h-11.118z"/><ellipse cx="34.115" cy="18.691" rx="18.608" ry="18.62"/><path d="M79.515 64.36l-42.641-.024-1.01-.003V59.38l-.035-4.144c0-9.9-8.02-17.927-17.915-17.927-.335 0-.668.011-.998.03l-.026-.03C7.562 37.31 0 44.878 0 54.212v47.735h35.864V81.612l-.474-.037c-.034-.003-.043 0-.064 0a8.675 8.675 0 0 1-6.39-2.812l-14.557-15.9a1.244 1.244 0 0 1 1.833-1.681l14.557 15.9c1.183 1.292 2.85 2.082 4.607 2.108l1.711.024h42.428a7.425 7.425 0 0 0 7.422-7.427 7.425 7.425 0 0 0-7.422-7.427z"/><path d="M123.609 38.005a3.323 3.323 0 0 0-4.22 2.068L105.3 81.227h-50.41a3.324 3.324 0 1 0 0 6.649h52.744c1.13 0 2.127-.566 2.726-1.43.208-.273.377-.582.494-.925l14.822-43.294a3.326 3.326 0 0 0-2.068-4.222z"/></g></svg>