<svg width="108" height="103" viewBox="0 0 108 103" xmlns="http://www.w3.org/2000/svg"><g fill="#DFDFDF"><path d="M0 102.164l9.362.808 16.365-16.362-5.087-5.062zM46.966 16.651l8.429 8.387-38.686 38.496.043.043c-2.324 3.204 1.336 11.213 8.512 18.354s15.226 10.782 18.445 8.47l.044.044 38.686-38.494 8.429 8.387 3.858-3.839-43.902-43.687-3.859 3.839zm-5.862 69.682c-1.714.001-6.805-2.161-12.447-7.776-5.644-5.616-7.816-10.687-7.813-12.388l3.027-3.012 4.908 4.883 3.045-3.03-4.908-4.883 4.307-4.286 4.908 4.883 3.045-3.03-4.908-4.883 4.307-4.286 4.908 4.883 1.146-1.14 15.354 15.278-18.879 18.787zM74.777.042l-4.117 4.097 7.058 7.023-10.428 10.377 18.822 18.729 10.428-10.376 7.058 7.023 4.117-4.097z"/></g></svg>