<svg width="30" height="29" viewBox="0 0 30 29" xmlns="http://www.w3.org/2000/svg"><g fill="none" fill-rule="evenodd"><path d="M24.86 4.2c-5.56-5.6-14.62-5.6-20.2 0-5.55 5.55-5.55 14.6 0 20.18 5.58 5.56 14.64 5.56 20.2 0 5.57-5.57 5.57-14.63 0-20.2z" fill="#D85E72"/><path d="M20.4 19.9c-.43.44-1.13.44-1.55 0l-4.08-4.07-4.27 4.28c-.43.45-1.13.45-1.55 0-.43-.4-.43-1.1 0-1.53l4.27-4.27-4.08-4.08c-.43-.42-.43-1.12 0-1.55.43-.43 1.12-.43 1.55 0l4.05 4.08 3.88-3.88c.43-.43 1.13-.43 1.55 0 .42.43.42 1.12 0 1.55l-3.9 3.88 4.1 4.08c.42.43.42 1.12 0 1.55z" fill="#FFF"/></g></svg>