<svg width="19" height="19" viewBox="0 0 19 19" xmlns="http://www.w3.org/2000/svg"><path d="M18.856 10.018c0 .412-.149.775-.448 1.089l-.908.908c-.307.307-.674.46-1.101.46-.436 0-.799-.153-1.089-.46l-3.558-3.546v8.52c0 .42-.151.76-.454 1.023a1.617 1.617 0 0 1-1.095.393H8.654c-.428 0-.793-.131-1.095-.393-.303-.262-.454-.603-.454-1.023v-8.52l-3.558 3.546c-.29.307-.654.46-1.089.46-.436 0-.799-.153-1.089-.46l-.908-.908a1.488 1.488 0 0 1-.46-1.089c0-.428.153-.795.46-1.101L8.34 1.038C8.622.739 8.985.59 9.429.59c.436 0 .803.149 1.101.448l7.879 7.879c.299.315.448.682.448 1.101z"/></svg>